<?xml version="1.0" encoding="UTF-8"?> <svg xmlns="http://www.w3.org/2000/svg" width="461" height="66" viewBox="0 0 461 66" fill="none"> <path d="M93.1 1.1C93.2333 1.1 93.3 1.3 93.3 1.7C93.3 2.1 93.2333 2.3 93.1 2.3C88.3 2.3 84.7 5.33334 82.3 11.4L61.9 63.5C61.8333 63.7667 61.4667 63.9 60.8 63.9C60.1333 63.9 59.7667 63.7667 59.7 63.5L46.7 35.5L35.8 63.5C35.7333 63.7667 35.3667 63.9 34.7 63.9C34.0333 63.9 33.6667 63.7667 33.6 63.5L8.5 9.4C7.23333 6.6 6.03333 4.73333 4.9 3.8C3.83333 2.8 2.3 2.3 0.3 2.3C0.1 2.3 0 2.1 0 1.7C0 1.3 0.1 1.1 0.3 1.1L3.4 1.2C5.13333 1.33333 6.76667 1.4 8.3 1.4C11.3 1.4 14.2667 1.33333 17.2 1.2C18.1333 1.13334 19.4 1.1 21 1.1C21.2 1.1 21.3 1.3 21.3 1.7C21.3 2.1 21.2 2.3 21 2.3C19.0667 2.3 17.6667 2.5 16.8 2.9C15.9333 3.3 15.5 4.06667 15.5 5.2C15.5 6.13333 15.9667 7.63334 16.9 9.7L37.2 53L45.3 32.5L34.6 9.4C33.4667 6.93333 32.3 5.13333 31.1 4C29.9667 2.86667 28.5667 2.3 26.9 2.3C26.7 2.3 26.6 2.1 26.6 1.7C26.6 1.3 26.7 1.1 26.9 1.1L30 1.2C31.6 1.33333 33.0667 1.4 34.4 1.4C36.9333 1.4 39.2667 1.33333 41.4 1.2C42.0667 1.13334 42.9667 1.1 44.1 1.1C44.3 1.1 44.4 1.3 44.4 1.7C44.4 2.1 44.3 2.3 44.1 2.3C42.9667 2.3 42.1333 2.43333 41.6 2.7C41.1333 2.9 40.9 3.3 40.9 3.9C40.9 4.43333 41.1 5.2 41.5 6.2C41.9 7.2 42.4 8.36667 43 9.7L49.4 23.4L54.3 11C55.2333 8.53333 55.7 6.66667 55.7 5.4C55.7 3.33334 54.4667 2.3 52 2.3C51.8667 2.3 51.8 2.1 51.8 1.7C51.8 1.3 51.8667 1.1 52 1.1L54 1.2C55.2 1.33333 56.7333 1.4 58.6 1.4C59.8667 1.4 61.3 1.33333 62.9 1.2L67 1.1C67.1333 1.1 67.2 1.3 67.2 1.7C67.2 2.1 67.1333 2.3 67 2.3C64.7333 2.3 62.7667 3 61.1 4.4C59.4333 5.8 57.9667 8.13334 56.7 11.4L50.8 26.3L63.3 53L79.7 11.4C80.3 9.86667 80.6 8.5 80.6 7.3C80.6 3.96667 78.2667 2.3 73.6 2.3C73.4 2.3 73.3 2.1 73.3 1.7C73.3 1.3 73.4 1.1 73.6 1.1L77.9 1.2C80.3 1.33333 82.4 1.4 84.2 1.4C85.5333 1.4 87.0667 1.33333 88.8 1.2L93.1 1.1Z" fill="#DBAF96" fill-opacity="0.2"></path> <path d="M140.88 48.4C140.88 48.2667 141.014 48.2 141.28 48.2C141.48 48.2 141.647 48.2667 141.78 48.4C141.98 48.4667 142.08 48.5333 142.08 48.6C141.414 53.4 141.08 57.9 141.08 62.1C141.08 62.6333 140.98 63.0333 140.78 63.3C140.58 63.5 140.18 63.6 139.58 63.6H96.9805C96.7805 63.6 96.6805 63.4 96.6805 63C96.6805 62.6 96.7805 62.4 96.9805 62.4C99.3805 62.4 101.114 62.2333 102.18 61.9C103.247 61.5667 103.98 60.9333 104.38 60C104.78 59 104.98 57.5 104.98 55.5V9.2C104.98 7.2 104.78 5.73334 104.38 4.8C103.98 3.86667 103.214 3.23333 102.08 2.9C101.014 2.5 99.3138 2.3 96.9805 2.3C96.7805 2.3 96.6805 2.1 96.6805 1.7C96.6805 1.3 96.7805 1.1 96.9805 1.1H137.78C138.447 1.1 138.78 1.4 138.78 2L138.98 14.6C138.98 14.8 138.78 14.9333 138.38 15C138.047 15 137.847 14.9 137.78 14.7C137.314 11.0333 136.014 8.26667 133.88 6.4C131.747 4.46667 128.947 3.5 125.48 3.5H120.38C117.447 3.5 115.48 3.93334 114.48 4.8C113.48 5.6 112.98 7.2 112.98 9.6V29.9H123.98C127.38 29.9 129.88 29.3333 131.48 28.2C133.08 27 133.88 25.1667 133.88 22.7C133.88 22.5667 134.047 22.5 134.38 22.5C134.78 22.5 134.98 22.5667 134.98 22.7L134.88 31.1L134.98 35.6C135.114 37.7333 135.18 39.4 135.18 40.6C135.18 40.7333 134.98 40.8 134.58 40.8C134.18 40.8 133.98 40.7333 133.98 40.6C133.98 37.7333 133.147 35.6333 131.48 34.3C129.88 32.9 127.28 32.2 123.68 32.2H112.98V55.1C112.98 57.5 113.414 59.1333 114.28 60C115.214 60.8667 117.047 61.3 119.78 61.3H126.28C130.08 61.3 133.214 60.2 135.68 58C138.214 55.7333 139.947 52.5333 140.88 48.4Z" fill="#DBAF96" fill-opacity="0.2"></path> <path d="M177.88 64C175.88 64 173.58 63.9 170.98 63.7C169.98 63.6333 168.746 63.5667 167.28 63.5C165.813 63.4333 164.18 63.4 162.38 63.4L155.38 63.5C154.113 63.5667 152.38 63.6 150.18 63.6C150.046 63.6 149.98 63.4 149.98 63C149.98 62.6 150.046 62.4 150.18 62.4C152.58 62.4 154.346 62.2333 155.48 61.9C156.613 61.5667 157.38 60.9333 157.78 60C158.18 59 158.38 57.5 158.38 55.5V9.2C158.38 7.2 158.18 5.73334 157.78 4.8C157.38 3.86667 156.613 3.23333 155.48 2.9C154.413 2.5 152.713 2.3 150.38 2.3C150.18 2.3 150.08 2.1 150.08 1.7C150.08 1.3 150.18 1.1 150.38 1.1L155.38 1.2C158.313 1.33333 160.646 1.4 162.38 1.4C164.913 1.4 167.48 1.3 170.08 1.1C173.28 0.966669 175.413 0.900002 176.48 0.900002C183.346 0.900002 189.446 2.23334 194.78 4.9C200.113 7.56667 204.246 11.2 207.18 15.8C210.113 20.4 211.58 25.5667 211.58 31.3C211.58 37.7667 210.046 43.5 206.98 48.5C203.98 53.4333 199.913 57.2667 194.78 60C189.646 62.6667 184.013 64 177.88 64ZM176.88 62.2C181.88 62.2 186.28 61.1 190.08 58.9C193.946 56.6333 196.946 53.3667 199.08 49.1C201.28 44.7667 202.38 39.5667 202.38 33.5C202.38 27.7 201.346 22.4667 199.28 17.8C197.28 13.0667 194.38 9.36667 190.58 6.7C186.846 3.96667 182.48 2.6 177.48 2.6C174.613 2.6 172.413 2.76667 170.88 3.1C169.346 3.43334 168.213 4.1 167.48 5.1C166.746 6.03333 166.38 7.46667 166.38 9.4V54.4C166.38 57.2667 167.08 59.3 168.48 60.5C169.946 61.6333 172.746 62.2 176.88 62.2Z" fill="#DBAF96" fill-opacity="0.2"></path> <path d="M247.509 64C245.509 64 243.209 63.9 240.609 63.7C239.609 63.6333 238.375 63.5667 236.909 63.5C235.442 63.4333 233.809 63.4 232.009 63.4L225.009 63.5C223.742 63.5667 222.009 63.6 219.809 63.6C219.675 63.6 219.609 63.4 219.609 63C219.609 62.6 219.675 62.4 219.809 62.4C222.209 62.4 223.975 62.2333 225.109 61.9C226.242 61.5667 227.009 60.9333 227.409 60C227.809 59 228.009 57.5 228.009 55.5V9.2C228.009 7.2 227.809 5.73334 227.409 4.8C227.009 3.86667 226.242 3.23333 225.109 2.9C224.042 2.5 222.342 2.3 220.009 2.3C219.809 2.3 219.709 2.1 219.709 1.7C219.709 1.3 219.809 1.1 220.009 1.1L225.009 1.2C227.942 1.33333 230.275 1.4 232.009 1.4C234.542 1.4 237.109 1.3 239.709 1.1C242.909 0.966669 245.042 0.900002 246.109 0.900002C252.975 0.900002 259.075 2.23334 264.409 4.9C269.742 7.56667 273.875 11.2 276.809 15.8C279.742 20.4 281.209 25.5667 281.209 31.3C281.209 37.7667 279.675 43.5 276.609 48.5C273.609 53.4333 269.542 57.2667 264.409 60C259.275 62.6667 253.642 64 247.509 64ZM246.509 62.2C251.509 62.2 255.909 61.1 259.709 58.9C263.575 56.6333 266.575 53.3667 268.709 49.1C270.909 44.7667 272.009 39.5667 272.009 33.5C272.009 27.7 270.975 22.4667 268.909 17.8C266.909 13.0667 264.009 9.36667 260.209 6.7C256.475 3.96667 252.109 2.6 247.109 2.6C244.242 2.6 242.042 2.76667 240.509 3.1C238.975 3.43334 237.842 4.1 237.109 5.1C236.375 6.03333 236.009 7.46667 236.009 9.4V54.4C236.009 57.2667 236.709 59.3 238.109 60.5C239.575 61.6333 242.375 62.2 246.509 62.2Z" fill="#DBAF96" fill-opacity="0.2"></path> <path d="M306.938 55.5C306.938 57.5 307.138 59 307.538 60C307.938 60.9333 308.671 61.5667 309.738 61.9C310.871 62.2333 312.638 62.4 315.038 62.4C315.171 62.4 315.238 62.6 315.238 63C315.238 63.4 315.171 63.6 315.038 63.6C312.904 63.6 311.238 63.5667 310.038 63.5L302.838 63.4L295.838 63.5C294.571 63.5667 292.838 63.6 290.638 63.6C290.504 63.6 290.438 63.4 290.438 63C290.438 62.6 290.504 62.4 290.638 62.4C293.038 62.4 294.804 62.2333 295.938 61.9C297.071 61.5667 297.838 60.9333 298.238 60C298.638 59 298.838 57.5 298.838 55.5V9.2C298.838 7.2 298.638 5.73334 298.238 4.8C297.838 3.86667 297.071 3.23333 295.938 2.9C294.804 2.5 293.038 2.3 290.638 2.3C290.504 2.3 290.438 2.1 290.438 1.7C290.438 1.3 290.504 1.1 290.638 1.1L295.838 1.2C298.771 1.33333 301.104 1.4 302.838 1.4C304.771 1.4 307.204 1.33333 310.138 1.2L315.038 1.1C315.171 1.1 315.238 1.3 315.238 1.7C315.238 2.1 315.171 2.3 315.038 2.3C312.704 2.3 310.971 2.5 309.838 2.9C308.704 3.3 307.938 4 307.538 5C307.138 5.93334 306.938 7.4 306.938 9.4V55.5Z" fill="#DBAF96" fill-opacity="0.2"></path> <path d="M390.634 1.1C390.834 1.1 390.934 1.3 390.934 1.7C390.934 2.1 390.834 2.3 390.634 2.3C385.167 2.3 382.434 5.76667 382.434 12.7V64.9C382.434 65.0333 382.267 65.1333 381.934 65.2C381.667 65.2667 381.467 65.2333 381.334 65.1L334.434 9.5V52.1C334.434 55.6333 335.067 58.2333 336.334 59.9C337.667 61.5667 339.667 62.4 342.334 62.4C342.534 62.4 342.634 62.6 342.634 63C342.634 63.4 342.534 63.6 342.334 63.6C340.6 63.6 339.267 63.5667 338.334 63.5L333.234 63.4L327.834 63.5C326.834 63.5667 325.367 63.6 323.434 63.6C323.3 63.6 323.234 63.4 323.234 63C323.234 62.6 323.3 62.4 323.434 62.4C326.3 62.4 328.4 61.5667 329.734 59.9C331.134 58.2333 331.834 55.6333 331.834 52.1V6.7C328.9 3.76667 326 2.3 323.134 2.3C322.934 2.3 322.834 2.1 322.834 1.7C322.834 1.3 322.934 1.1 323.134 1.1L327.034 1.2C327.834 1.26667 328.967 1.3 330.434 1.3L335.634 1.2C336.234 1.13334 337 1.1 337.934 1.1C338.467 1.1 338.834 1.23333 339.034 1.5C339.3 1.7 339.7 2.2 340.234 3C340.834 3.93334 341.667 5.03333 342.734 6.3L379.934 51.2V12.7C379.934 9.16667 379.3 6.56667 378.034 4.9C376.767 3.16667 374.8 2.3 372.134 2.3C372 2.3 371.934 2.1 371.934 1.7C371.934 1.3 372 1.1 372.134 1.1L376.134 1.2C378.134 1.33333 379.834 1.4 381.234 1.4C382.434 1.4 384.167 1.33333 386.434 1.2L390.634 1.1Z" fill="#DBAF96" fill-opacity="0.2"></path> <path d="M433.28 64.8C426.014 64.8 419.68 63.4 414.28 60.6C408.88 57.8 404.747 54 401.88 49.2C399.014 44.4 397.58 39.0333 397.58 33.1C397.58 26.6333 399.214 20.9 402.48 15.9C405.814 10.9 410.347 7 416.08 4.2C421.88 1.4 428.38 0 435.58 0C438.78 0 441.88 0.300001 444.88 0.900002C447.947 1.5 450.447 2.3 452.38 3.3C452.914 3.63333 453.247 3.93333 453.38 4.2C453.514 4.46667 453.614 4.93333 453.68 5.6L454.98 17.7C454.98 17.9 454.78 18.0333 454.38 18.1C454.047 18.1 453.847 18 453.78 17.8C452.047 12.8667 449.214 9.06667 445.28 6.4C441.347 3.73333 436.614 2.4 431.08 2.4C423.214 2.4 417.147 4.8 412.88 9.6C408.614 14.4 406.48 21 406.48 29.4C406.48 35.9333 407.747 41.7667 410.28 46.9C412.814 51.9667 416.28 55.9333 420.68 58.8C425.147 61.6667 430.18 63.1 435.78 63.1C438.98 63.1 441.447 62.8 443.18 62.2C444.914 61.6 446.181 60.4333 446.98 58.7C447.78 56.9667 448.18 54.4 448.18 51C448.18 47.5333 447.947 45.1333 447.48 43.8C447.081 42.4 446.147 41.4667 444.68 41C443.28 40.5333 440.814 40.3 437.28 40.3C436.88 40.3 436.68 40.0333 436.68 39.5C436.68 39.3 436.714 39.1333 436.78 39C436.914 38.8 437.047 38.7 437.18 38.7C442.514 39.0333 446.847 39.2 450.18 39.2C453.314 39.2 456.647 39.1 460.18 38.9C460.314 38.9 460.414 39 460.48 39.2C460.614 39.3333 460.68 39.4667 460.68 39.6C460.68 40.0667 460.514 40.3 460.18 40.3C458.714 40.2333 457.68 40.4667 457.08 41C456.48 41.4667 456.081 42.4667 455.88 44C455.747 45.5333 455.68 48.2 455.68 52C455.68 55 455.78 57.1333 455.98 58.4C456.247 59.6667 456.38 60.4667 456.38 60.8C456.38 61.2 456.28 61.4667 456.08 61.6C455.947 61.6667 455.647 61.8 455.18 62C446.98 63.8667 439.68 64.8 433.28 64.8Z" fill="#DBAF96" fill-opacity="0.2"></path> </svg> 